<svg id="Layer_1" data-name="Layer 1" xmlns="http://www.w3.org/2000/svg" xmlns:xlink="http://www.w3.org/1999/xlink" viewBox="0 0 293 171"><defs><style>.cls-1{fill:none;}.cls-2{clip-path:url(#clip-path);}.cls-3{fill:#6abd45;}.cls-4{fill:#a9519f;}.cls-5{fill:#4357a7;}.cls-6{fill:#faa21b;}.cls-7{fill:#ed2024;}.cls-8{font-size:41px;fill:#726f71;font-family:ONEDAY, ONE DAY;}</style><clipPath id="clip-path" transform="translate(-166.2 -349.42)"><path class="cls-1" d="M428.2,520.42h-231a31,31,0,0,1-31-31v-109a31,31,0,0,1,31-31h231a31,31,0,0,1,31,31v109A31,31,0,0,1,428.2,520.42Zm10.5-51v-69a31,31,0,0,0-31-31h-190a31,31,0,0,0-31,31v69a31,31,0,0,0,31,31h190A31,31,0,0,0,438.7,469.42Z"/></clipPath></defs><title>TestGraphTablet</title><g class="cls-2"><rect class="cls-3" x="169.41" width="123.59" height="60.39"/><rect class="cls-4" x="219.37" y="60.25" width="73.63" height="110.75"/><rect class="cls-5" x="100" y="96" width="119.5" height="75"/><rect class="cls-6" y="73.87" width="100" height="97.13"/><rect class="cls-7" width="169.5" height="74"/></g><text class="cls-8" transform="translate(33.75 99.5)">InteresTag</text></svg>